<svg xmlns="http://www.w3.org/2000/svg" xmlns:xlink="http://www.w3.org/1999/xlink" contentStyleType="text/css" data-diagram-type="CLASS" height="422.8125px" preserveAspectRatio="none" style="width:2118px;height:422px;background:#FFFFFF;" version="1.1" viewBox="0 0 2118 422" width="2118.75px" zoomAndPan="magnify"><?plantuml 1.2026.6?><defs/><g><!--cluster App\\Contracts--><g class="cluster" data-qualified-name="App..Contracts" data-source-line="16" id="ent0001"><path d="M61.7813,247.1531 L167.9238,247.1531 A3.5156,3.5156 0 0 1 170.2676,249.4969 L176.8301,268.0564 L298.9688,268.0564 A2.3438,2.3438 0 0 1 301.3125,270.4002 L301.3125,406.4813 A2.3438,2.3438 0 0 1 298.9688,408.825 L61.7813,408.825 A2.3438,2.3438 0 0 1 59.4375,406.4813 L59.4375,249.4969 A2.3438,2.3438 0 0 1 61.7813,247.1531" fill="none" style="stroke:#000000;stroke-width:1.4063;"/><line style="stroke:#000000;stroke-width:1.4063;" x1="59.4375" x2="176.8301" y1="268.0564" y2="268.0564"/><text fill="#000000" font-family="sans-serif" font-size="13.125" font-weight="700" lengthAdjust="spacing" textLength="105.2051" x="63.1875" y="261.211">App\Contracts</text></g><!--cluster App\\Exports--><g class="cluster" data-qualified-name="App..Exports" data-source-line="25" id="ent0003"><path d="M410.5313,26.7937 L501.6134,26.7937 A3.5156,3.5156 0 0 1 503.9572,29.1375 L510.5197,47.6971 L1594.5938,47.6971 A2.3438,2.3438 0 0 1 1596.9375,50.0408 L1596.9375,399.9375 A2.3438,2.3438 0 0 1 1594.5938,402.2812 L410.5313,402.2812 A2.3438,2.3438 0 0 1 408.1875,399.9375 L408.1875,29.1375 A2.3438,2.3438 0 0 1 410.5313,26.7937" fill="none" style="stroke:#000000;stroke-width:1.4063;"/><line style="stroke:#000000;stroke-width:1.4063;" x1="408.1875" x2="510.5197" y1="47.6971" y2="47.6971"/><text fill="#000000" font-family="sans-serif" font-size="13.125" font-weight="700" lengthAdjust="spacing" textLength="90.1447" x="411.9375" y="40.8517">App\Exports</text></g><!--cluster App\\Actions--><g class="cluster" data-qualified-name="App..Actions" data-source-line="77" id="ent0011"><path d="M1861.7813,26.7937 L1951.3445,26.7937 A3.5156,3.5156 0 0 1 1953.6883,29.1375 L1960.2508,47.6971 L2102.7188,47.6971 A2.3438,2.3438 0 0 1 2105.0625,50.0408 L2105.0625,383.5594 A2.3438,2.3438 0 0 1 2102.7188,385.9031 L1861.7813,385.9031 A2.3438,2.3438 0 0 1 1859.4375,383.5594 L1859.4375,29.1375 A2.3438,2.3438 0 0 1 1861.7813,26.7937" fill="none" style="stroke:#000000;stroke-width:1.4063;"/><line style="stroke:#000000;stroke-width:1.4063;" x1="1859.4375" x2="1960.2508" y1="47.6971" y2="47.6971"/><text fill="#000000" font-family="sans-serif" font-size="13.125" font-weight="700" lengthAdjust="spacing" textLength="88.6258" x="1863.1875" y="40.8517">App\Actions</text></g><!--class ExportableReport--><g class="entity" data-qualified-name="App..Contracts.ExportableReport" data-source-line="17" id="ent0002"><rect fill="#FCFCFD" height="113.8623" rx="2.3438" ry="2.3438" style="stroke:#4B5563;stroke-width:0.4688;" width="212.1048" x="74.325" y="279.9656"/><text fill="#000000" font-family="sans-serif" font-size="11.25" font-style="italic" lengthAdjust="spacing" textLength="63.9404" x="148.4072" y="295.0956">&#171;interface&#187;</text><text fill="#000000" font-family="sans-serif" font-size="13.125" font-style="italic" lengthAdjust="spacing" textLength="115.1578" x="122.7985" y="309.9318">ExportableReport</text><line style="stroke:#4B5563;stroke-width:0.4688;" x1="75.2625" x2="285.4923" y1="317.7146" y2="317.7146"/><line style="stroke:#4B5563;stroke-width:0.4688;" x1="75.2625" x2="285.4923" y1="325.2146" y2="325.2146"/><text fill="#000000" font-family="sans-serif" font-size="13.125" lengthAdjust="spacing" textLength="135.8963" x="79.95" y="341.1476">+extension() : string</text><text fill="#000000" font-family="sans-serif" font-size="13.125" lengthAdjust="spacing" textLength="141.1642" x="79.95" y="356.4259">+mimeType() : string</text><text fill="#000000" font-family="sans-serif" font-size="13.125" lengthAdjust="spacing" textLength="198.9001" x="79.95" y="371.7042">+fileName(basename) : string</text><text fill="#000000" font-family="sans-serif" font-size="13.125" lengthAdjust="spacing" textLength="200.8548" x="79.95" y="386.9825">+render(header, rows) : string</text></g><!--class AbstractReportExporter--><g class="entity" data-qualified-name="App..Exports.AbstractReportExporter" data-source-line="27" id="ent0004"><rect fill="#FCFCFD" height="98.584" rx="2.3438" ry="2.3438" style="stroke:#4B5563;stroke-width:0.4688;" width="210.1501" x="1141.2375" y="82.5281"/><text fill="#000000" font-family="sans-serif" font-size="11.25" font-style="italic" lengthAdjust="spacing" textLength="60.1886" x="1216.2183" y="97.6581">&#171;abstract&#187;</text><text fill="#000000" font-family="sans-serif" font-size="13.125" font-style="italic" lengthAdjust="spacing" textLength="155.6287" x="1168.4982" y="112.4943">AbstractReportExporter</text><line style="stroke:#4B5563;stroke-width:0.4688;" x1="1142.175" x2="1350.4501" y1="120.2771" y2="120.2771"/><line style="stroke:#4B5563;stroke-width:0.4688;" x1="1142.175" x2="1350.4501" y1="127.7771" y2="127.7771"/><text fill="#000000" font-family="sans-serif" font-size="13.125" lengthAdjust="spacing" textLength="198.9001" x="1146.8625" y="143.7101">+fileName(basename) : string</text><text fill="#000000" font-family="sans-serif" font-size="13.125" lengthAdjust="spacing" textLength="130.1157" x="1146.8625" y="158.9884">#cell(value) : string</text><text fill="#000000" font-family="sans-serif" font-size="13.125" lengthAdjust="spacing" textLength="122.233" x="1146.8625" y="174.2667">#cells(row) : array</text></g><!--class CsvReportExporter--><g class="entity" data-qualified-name="App..Exports.CsvReportExporter" data-source-line="33" id="ent0005"><rect fill="#FCFCFD" height="100.7666" rx="2.3438" ry="2.3438" style="stroke:#4B5563;stroke-width:0.4688;" width="212.1048" x="1088.7" y="286.5094"/><text fill="#000000" font-family="sans-serif" font-size="13.125" lengthAdjust="spacing" textLength="124.303" x="1132.6009" y="303.3798">CsvReportExporter</text><line style="stroke:#4B5563;stroke-width:0.4688;" x1="1089.6375" x2="1299.8673" y1="311.1627" y2="311.1627"/><text fill="#000000" font-family="sans-serif" font-size="13.125" lengthAdjust="spacing" text-decoration="underline" textLength="161.2234" x="1094.325" y="327.0956">-DELIMITER : string = ";"</text><line style="stroke:#4B5563;stroke-width:0.4688;" x1="1089.6375" x2="1299.8673" y1="333.941" y2="333.941"/><text fill="#000000" font-family="sans-serif" font-size="13.125" lengthAdjust="spacing" textLength="135.8963" x="1094.325" y="349.8739">+extension() : string</text><text fill="#000000" font-family="sans-serif" font-size="13.125" lengthAdjust="spacing" textLength="141.1642" x="1094.325" y="365.1523">+mimeType() : string</text><text fill="#000000" font-family="sans-serif" font-size="13.125" lengthAdjust="spacing" textLength="200.8548" x="1094.325" y="380.4306">+render(header, rows) : string</text></g><!--class JsonReportExporter--><g class="entity" data-qualified-name="App..Exports.JsonReportExporter" data-source-line="40" id="ent0006"><rect fill="#FCFCFD" height="85.4883" rx="2.3438" ry="2.3438" style="stroke:#4B5563;stroke-width:0.4688;" width="212.1048" x="831.825" y="294.15"/><text fill="#000000" font-family="sans-serif" font-size="13.125" lengthAdjust="spacing" textLength="127.5906" x="874.0821" y="311.0204">JsonReportExporter</text><line style="stroke:#4B5563;stroke-width:0.4688;" x1="832.7625" x2="1042.9923" y1="318.8033" y2="318.8033"/><line style="stroke:#4B5563;stroke-width:0.4688;" x1="832.7625" x2="1042.9923" y1="326.3033" y2="326.3033"/><text fill="#000000" font-family="sans-serif" font-size="13.125" lengthAdjust="spacing" textLength="135.8963" x="837.45" y="342.2362">+extension() : string</text><text fill="#000000" font-family="sans-serif" font-size="13.125" lengthAdjust="spacing" textLength="141.1642" x="837.45" y="357.5146">+mimeType() : string</text><text fill="#000000" font-family="sans-serif" font-size="13.125" lengthAdjust="spacing" textLength="200.8548" x="837.45" y="372.7929">+render(header, rows) : string</text></g><!--class ReportExporterRegistry--><g class="entity" data-qualified-name="App..Exports.ReportExporterRegistry" data-source-line="46" id="ent0007"><rect fill="#FCFCFD" height="144.4189" rx="2.3438" ry="2.3438" style="stroke:#4B5563;stroke-width:0.4688;" width="343.7009" x="781.0219" y="59.6062"/><text fill="#000000" font-family="sans-serif" font-size="11.25" font-style="italic" lengthAdjust="spacing" textLength="54.0637" x="925.8404" y="74.7363">&#171;service&#187;</text><text fill="#000000" font-family="sans-serif" font-size="13.125" lengthAdjust="spacing" textLength="154.8532" x="875.4457" y="89.5724">ReportExporterRegistry</text><line style="stroke:#4B5563;stroke-width:0.4688;" x1="781.9594" x2="1123.7852" y1="97.3553" y2="97.3553"/><text fill="#000000" font-family="sans-serif" font-size="13.125" lengthAdjust="spacing" text-decoration="underline" textLength="130.5579" x="786.6469" y="113.2882">-EXPORTERS : array</text><text fill="#000000" font-family="sans-serif" font-size="13.125" lengthAdjust="spacing" textLength="143.8303" x="786.6469" y="128.5665">-container : Container</text><line style="stroke:#4B5563;stroke-width:0.4688;" x1="781.9594" x2="1123.7852" y1="135.4119" y2="135.4119"/><text fill="#000000" font-family="sans-serif" font-size="13.125" lengthAdjust="spacing" textLength="332.4509" x="786.6469" y="151.3448">+make(format, fallback = null) : ExportableReport</text><text fill="#000000" font-family="sans-serif" font-size="13.125" lengthAdjust="spacing" textLength="119.5093" x="786.6469" y="166.6232">+formats() : array</text><text fill="#000000" font-family="sans-serif" font-size="13.125" lengthAdjust="spacing" textLength="163.2935" x="786.6469" y="181.9015">+supports(format) : bool</text><text fill="#000000" font-family="sans-serif" font-size="13.125" lengthAdjust="spacing" textLength="248.8367" x="786.6469" y="197.1798">+forFile(fileName) : ExportableReport</text></g><!--class ReportExportService--><g class="entity" data-qualified-name="App..Exports.ReportExportService" data-source-line="55" id="ent0008"><rect fill="#FCFCFD" height="113.8623" rx="2.3438" ry="2.3438" style="stroke:#4B5563;stroke-width:0.4688;" width="213.5724" x="1368.2813" y="74.8875"/><text fill="#000000" font-family="sans-serif" font-size="11.25" font-style="italic" lengthAdjust="spacing" textLength="54.0637" x="1448.0356" y="90.0175">&#171;service&#187;</text><text fill="#000000" font-family="sans-serif" font-size="13.125" lengthAdjust="spacing" textLength="135.5695" x="1407.2827" y="104.8536">ReportExportService</text><line style="stroke:#4B5563;stroke-width:0.4688;" x1="1369.2188" x2="1580.9161" y1="112.6365" y2="112.6365"/><text fill="#000000" font-family="sans-serif" font-size="13.125" lengthAdjust="spacing" text-decoration="underline" textLength="162.1207" x="1373.9063" y="128.5694">-CHUNK_SIZE : int = 200</text><text fill="#000000" font-family="sans-serif" font-size="13.125" lengthAdjust="spacing" text-decoration="underline" textLength="170.2597" x="1373.9063" y="143.8478">-MAX_CHUNKS : int = 100</text><line style="stroke:#4B5563;stroke-width:0.4688;" x1="1369.2188" x2="1580.9161" y1="150.6932" y2="150.6932"/><text fill="#000000" font-family="sans-serif" font-size="13.125" lengthAdjust="spacing" textLength="138.8123" x="1373.9063" y="166.6261">+build(query) : array</text><text fill="#000000" font-family="sans-serif" font-size="13.125" lengthAdjust="spacing" textLength="202.3224" x="1373.9063" y="181.9044">-rowFor(order, number) : array</text></g><!--class ExportArchiver--><g class="entity" data-qualified-name="App..Exports.ExportArchiver" data-source-line="62" id="ent0009"><rect fill="#FCFCFD" height="144.4189" rx="2.3438" ry="2.3438" style="stroke:#4B5563;stroke-width:0.4688;" width="340.3812" x="423.6188" y="59.6062"/><text fill="#000000" font-family="sans-serif" font-size="11.25" font-style="italic" lengthAdjust="spacing" textLength="54.0637" x="566.7775" y="74.7363">&#171;service&#187;</text><text fill="#000000" font-family="sans-serif" font-size="13.125" lengthAdjust="spacing" textLength="97.7582" x="544.9302" y="89.5724">ExportArchiver</text><line style="stroke:#4B5563;stroke-width:0.4688;" x1="424.5563" x2="763.0624" y1="97.3553" y2="97.3553"/><text fill="#000000" font-family="sans-serif" font-size="13.125" lengthAdjust="spacing" text-decoration="underline" textLength="218.4787" x="429.2438" y="113.2882">+DIRECTORY : string = "exports"</text><text fill="#000000" font-family="sans-serif" font-size="13.125" lengthAdjust="spacing" textLength="114.2862" x="429.2438" y="128.5665">-disk : Filesystem</text><line style="stroke:#4B5563;stroke-width:0.4688;" x1="424.5563" x2="763.0624" y1="135.4119" y2="135.4119"/><text fill="#000000" font-family="sans-serif" font-size="13.125" lengthAdjust="spacing" textLength="329.1312" x="429.2438" y="151.3448">+store(exporter, basename, header, rows) : array</text><text fill="#000000" font-family="sans-serif" font-size="13.125" lengthAdjust="spacing" textLength="144.4904" x="429.2438" y="166.6232">+list(limit = 8) : array</text><text fill="#000000" font-family="sans-serif" font-size="13.125" lengthAdjust="spacing" textLength="138.7482" x="429.2438" y="181.9015">+read(name) : string</text><text fill="#000000" font-family="sans-serif" font-size="13.125" lengthAdjust="spacing" textLength="138.7418" x="429.2438" y="197.1798">+path(name) : string</text></g><!--class ReportColumnMap--><g class="entity" data-qualified-name="App..Exports.ReportColumnMap" data-source-line="71" id="ent0010"><rect fill="#FCFCFD" height="83.3057" rx="2.3438" ry="2.3438" style="stroke:#4B5563;stroke-width:0.4688;" width="148.5178" x="1400.8031" y="295.2375"/><text fill="#000000" font-family="sans-serif" font-size="11.25" font-style="italic" lengthAdjust="spacing" textLength="45.7526" x="1452.1857" y="310.3675">&#171;utility&#187;</text><text fill="#000000" font-family="sans-serif" font-size="13.125" lengthAdjust="spacing" textLength="122.0599" x="1414.032" y="325.2036">ReportColumnMap</text><line style="stroke:#4B5563;stroke-width:0.4688;" x1="1401.7406" x2="1548.3834" y1="332.9865" y2="332.9865"/><line style="stroke:#4B5563;stroke-width:0.4688;" x1="1401.7406" x2="1548.3834" y1="340.4865" y2="340.4865"/><text fill="#000000" font-family="sans-serif" font-size="13.125" lengthAdjust="spacing" text-decoration="underline" textLength="137.2678" x="1406.4281" y="356.4194">+definitions() : array</text><text fill="#000000" font-family="sans-serif" font-size="13.125" lengthAdjust="spacing" text-decoration="underline" textLength="114.8886" x="1406.4281" y="371.6978">+header() : array</text></g><!--class DateRangeFilter--><g class="entity" data-qualified-name="App..Actions.DateRangeFilter" data-source-line="78" id="ent0012"><rect fill="#FCFCFD" height="68.0273" rx="2.3438" ry="2.3438" style="stroke:#4B5563;stroke-width:0.4688;" width="214.8157" x="1874.8406" y="302.8781"/><text fill="#000000" font-family="sans-serif" font-size="11.25" font-style="italic" lengthAdjust="spacing" textLength="45.7526" x="1959.3722" y="318.0081">&#171;utility&#187;</text><text fill="#000000" font-family="sans-serif" font-size="13.125" lengthAdjust="spacing" textLength="106.7175" x="1928.8897" y="332.8443">DateRangeFilter</text><line style="stroke:#4B5563;stroke-width:0.4688;" x1="1875.7781" x2="2088.7188" y1="340.6271" y2="340.6271"/><line style="stroke:#4B5563;stroke-width:0.4688;" x1="1875.7781" x2="2088.7188" y1="348.1271" y2="348.1271"/><text fill="#000000" font-family="sans-serif" font-size="13.125" lengthAdjust="spacing" text-decoration="underline" textLength="203.5657" x="1880.4656" y="364.0601">+fromRequest(request) : array</text></g><!--class ReportQuery--><g class="entity" data-qualified-name="App..Actions.ReportQuery" data-source-line="81" id="ent0013"><rect fill="#FCFCFD" height="144.4189" rx="2.3438" ry="2.3438" style="stroke:#4B5563;stroke-width:0.4688;" width="161.3095" x="1901.5969" y="59.6062"/><text fill="#000000" font-family="sans-serif" font-size="11.25" font-style="italic" lengthAdjust="spacing" textLength="54.0637" x="1955.2198" y="74.7363">&#171;service&#187;</text><text fill="#000000" font-family="sans-serif" font-size="13.125" lengthAdjust="spacing" textLength="83.9859" x="1940.2587" y="89.5724">ReportQuery</text><line style="stroke:#4B5563;stroke-width:0.4688;" x1="1902.5344" x2="2061.9689" y1="97.3553" y2="97.3553"/><text fill="#000000" font-family="sans-serif" font-size="13.125" lengthAdjust="spacing" textLength="121.5857" x="1907.2219" y="113.2882">-request : Request</text><text fill="#000000" font-family="sans-serif" font-size="13.125" lengthAdjust="spacing" text-decoration="underline" textLength="126.3153" x="1907.2219" y="128.5665">+STATUSES : array</text><line style="stroke:#4B5563;stroke-width:0.4688;" x1="1902.5344" x2="2061.9689" y1="135.4119" y2="135.4119"/><text fill="#000000" font-family="sans-serif" font-size="13.125" lengthAdjust="spacing" textLength="106.8137" x="1907.2219" y="151.3448">+range() : array</text><text fill="#000000" font-family="sans-serif" font-size="13.125" lengthAdjust="spacing" textLength="112.0111" x="1907.2219" y="166.6232">+status() : string</text><text fill="#000000" font-family="sans-serif" font-size="13.125" lengthAdjust="spacing" textLength="116.1063" x="1907.2219" y="181.9015">+listed() : Builder</text><text fill="#000000" font-family="sans-serif" font-size="13.125" lengthAdjust="spacing" textLength="150.0595" x="1907.2219" y="197.1798">+completed() : Builder</text></g><!--class Filesystem--><g class="entity" data-qualified-name="Filesystem" data-source-line="100" id="ent0022"><rect fill="#FCFCFD" height="39.6533" rx="2.3438" ry="2.3438" style="stroke:#4B5563;stroke-width:0.4688;" width="75.9924" x="316.7531" y="317.0625"/><text fill="#000000" font-family="sans-serif" font-size="13.125" lengthAdjust="spacing" textLength="70.3674" x="319.5656" y="333.9329">Filesystem</text><line style="stroke:#4B5563;stroke-width:0.4688;" x1="317.6906" x2="391.8081" y1="341.7158" y2="341.7158"/><line style="stroke:#4B5563;stroke-width:0.4688;" x1="317.6906" x2="391.8081" y1="349.2158" y2="349.2158"/></g><g class="entity" data-qualified-name="GMN25" data-source-line="104" id="ent0026"><path d="M5.625,91.6594 L5.625,171.9694 A0,0 0 0 0 5.625,171.9694 L163.8,171.9694 L175.9781,279.8625 L171.3,171.9694 L323.2516,171.9694 A0,0 0 0 0 323.2516,171.9694 L323.2516,101.0344 L313.8766,91.6594 L5.625,91.6594 A0,0 0 0 0 5.625,91.6594" fill="#FEFFDD" style="stroke:#181818;stroke-width:0.4688;"/><path d="M313.8766,91.6594 L313.8766,101.0344 L323.2516,101.0344 L313.8766,91.6594" fill="#FEFFDD" style="stroke:#181818;stroke-width:0.4688;"/><text fill="#000000" font-family="sans-serif" font-size="12.1875" lengthAdjust="spacing" textLength="297.1298" x="11.25" y="107.6596">Antarmuka inilah satu-satunya tipe yang dikenal</text><text fill="#000000" font-family="sans-serif" font-size="12.1875" lengthAdjust="spacing" textLength="297.9391" x="11.25" y="121.8466">ReportExportController. Menambah format Excel</text><text fill="#000000" font-family="sans-serif" font-size="12.1875" lengthAdjust="spacing" textLength="263.9296" x="11.25" y="136.0336">cukup membuat satu kelas baru di sini dan</text><text fill="#000000" font-family="sans-serif" font-size="12.1875" lengthAdjust="spacing" textLength="253.1822" x="11.25" y="150.2206">mendaftarkannya di registry -- controller,</text><text fill="#000000" font-family="sans-serif" font-size="12.1875" lengthAdjust="spacing" textLength="232.4373" x="11.25" y="164.4076">rute, dan tampilan tidak perlu diubah.</text></g><g class="entity" data-qualified-name="GMN28" data-source-line="112" id="ent0029"><path d="M1611.8813,91.6594 L1611.8813,171.9694 L1844.487,171.9694 L1844.487,101.0344 L1835.112,91.6594 L1611.8813,91.6594" fill="#FEFFDD" style="stroke:#181818;stroke-width:0.4688;"/><path d="M1835.112,91.6594 L1835.112,101.0344 L1844.487,101.0344 L1835.112,91.6594" fill="#FEFFDD" style="stroke:#181818;stroke-width:0.9375;"/><text fill="#000000" font-family="sans-serif" font-size="12.1875" lengthAdjust="spacing" textLength="179.7061" x="1617.5063" y="107.6596">make(format, fallback = null)</text><text fill="#000000" font-family="sans-serif" font-size="12.1875" lengthAdjust="spacing" textLength="210.4308" x="1617.5063" y="121.8466">adalah bentuk overloading di PHP:</text><text fill="#000000" font-family="sans-serif" font-size="12.1875" lengthAdjust="spacing" textLength="189.3823" x="1617.5063" y="136.0336">parameter opsional + variadic,</text><text fill="#000000" font-family="sans-serif" font-size="12.1875" lengthAdjust="spacing" textLength="212.9182" x="1617.5063" y="150.2206">karena PHP tidak mengizinkan dua</text><text fill="#000000" font-family="sans-serif" font-size="12.1875" lengthAdjust="spacing" textLength="146.6249" x="1617.5063" y="164.4076">method bernama sama.</text></g><!--reverse link ExportableReport to AbstractReportExporter--><g class="link" data-entity-1="ent0002" data-entity-2="ent0004" data-link-type="extension" data-source-line="91" id="lnk14"><path codeLine="91" d="M252.293,269.2241 C272.5337,253.2584 283.1344,248.3156 307.875,239.6531 C337.1813,229.3875 556.2281,233.5688 587.25,232.1531 C696.5344,227.1375 723.6281,221.9719 832.875,216.2156 C866.1938,214.4531 1101.0094,213.9094 1132.875,204.0281 C1149.5344,198.8531 1166.175,190.6031 1181.3625,181.5094" fill="none" id="ExportableReport-backto-AbstractReportExporter" style="stroke:#1E7A5C;stroke-width:0.9375;stroke-dasharray:6.5625,6.5625;"/><polygon fill="none" points="239.0438,279.675,255.7767,273.6405,248.8094,264.8076,239.0438,279.675" style="stroke:#1E7A5C;stroke-width:0.9375;stroke-linejoin:miter;stroke-miterlimit:10;"/><text fill="#000000" font-family="sans-serif" font-size="12.1875" lengthAdjust="spacing" textLength="72.1014" x="833.8125" y="228.4658">implements</text></g><!--reverse link AbstractReportExporter to CsvReportExporter--><g class="link" data-entity-1="ent0004" data-entity-2="ent0005" data-link-type="extension" data-source-line="92" id="lnk15"><path codeLine="92" d="M1249.4899,198.4312 C1249.4712,214.7062 1248.2813,215.9437 1244.4375,232.1531 C1240.0875,250.5187 1232.175,269.475 1223.925,286.0781" fill="none" id="AbstractReportExporter-backto-CsvReportExporter" style="stroke:#1E7A5C;stroke-width:0.9375;"/><polygon fill="none" points="1249.5094,181.5562,1243.8649,198.4248,1255.1149,198.4377,1249.5094,181.5562" style="stroke:#1E7A5C;stroke-width:0.9375;stroke-linejoin:miter;stroke-miterlimit:10;"/></g><!--reverse link AbstractReportExporter to JsonReportExporter--><g class="link" data-entity-1="ent0004" data-entity-2="ent0006" data-link-type="extension" data-source-line="93" id="lnk16"><path codeLine="93" d="M1247.7262,198.4098 C1247.3418,219.8879 1245.3,225 1237.875,232.1531 C1225.2563,244.3031 1096.9969,234.1219 1080.375,239.6531 C1045.8094,251.1469 1011.825,273.5531 985.7156,293.8688" fill="none" id="AbstractReportExporter-backto-JsonReportExporter" style="stroke:#1E7A5C;stroke-width:0.9375;"/><polygon fill="none" points="1248.0281,181.5375,1242.1021,198.3091,1253.3503,198.5104,1248.0281,181.5375" style="stroke:#1E7A5C;stroke-width:0.9375;stroke-linejoin:miter;stroke-miterlimit:10;"/></g><!--link ReportExporterRegistry to ExportableReport--><g class="link" data-entity-1="ent0007" data-entity-2="ent0002" data-link-type="dependency" data-source-line="95" id="lnk17"><path codeLine="95" d="M780.5625,202.3594 C777.9938,202.9406 775.425,203.5031 772.875,204.0281 C724.5938,213.9281 375.7031,199.2094 329.4375,216.2156 C293.2969,229.4906 262.7516,252.1531 236.3797,276.4343" fill="none" id="ReportExporterRegistry-to-ExportableReport" style="stroke:#1E7A5C;stroke-width:0.9375;stroke-dasharray:6.5625,6.5625;"/><polygon fill="#1E7A5C" points="232.9313,279.6094,241.6785,276.653,236.3797,276.4343,236.5984,271.1355,232.9313,279.6094" style="stroke:#1E7A5C;stroke-width:0.9375;stroke-linejoin:miter;stroke-miterlimit:10;"/><text fill="#000000" font-family="sans-serif" font-size="12.1875" lengthAdjust="spacing" textLength="85.3958" x="330.375" y="228.4658">menghasilkan</text></g><!--link ReportExporterRegistry to CsvReportExporter--><g class="link" data-entity-1="ent0007" data-entity-2="ent0005" data-link-type="dependency" data-source-line="96" id="lnk18"><path codeLine="96" d="M1051.7906,204.45 C1056.7406,208.3781 1061.6063,212.3062 1066.3125,216.2156 C1092.8344,238.2 1117.5668,260.8779 1140.723,282.956" fill="none" id="ReportExporterRegistry-to-CsvReportExporter" style="stroke:#1E7A5C;stroke-width:0.9375;stroke-dasharray:6.5625,6.5625;"/><polygon fill="#1E7A5C" points="1144.1156,286.1906,1140.5967,277.6542,1140.723,282.956,1135.4212,283.0823,1144.1156,286.1906" style="stroke:#1E7A5C;stroke-width:0.9375;stroke-linejoin:miter;stroke-miterlimit:10;"/><text fill="#000000" font-family="sans-serif" font-size="12.1875" lengthAdjust="spacing" textLength="148.559" x="1085.4469" y="228.4658">membuat (format "csv")</text></g><!--link ReportExporterRegistry to JsonReportExporter--><g class="link" data-entity-1="ent0007" data-entity-2="ent0006" data-link-type="dependency" data-source-line="97" id="lnk19"><path codeLine="97" d="M914.9719,204.3656 C913.6781,208.3125 912.5438,212.2781 911.625,216.2156 C905.625,241.9125 910.0977,266.3649 917.8508,289.3337" fill="none" id="ReportExporterRegistry-to-JsonReportExporter" style="stroke:#1E7A5C;stroke-width:0.9375;stroke-dasharray:6.5625,6.5625;"/><polygon fill="#1E7A5C" points="919.35,293.775,920.2045,284.5813,917.8508,289.3337,913.0985,286.98,919.35,293.775" style="stroke:#1E7A5C;stroke-width:0.9375;stroke-linejoin:miter;stroke-miterlimit:10;"/><text fill="#000000" font-family="sans-serif" font-size="12.1875" lengthAdjust="spacing" textLength="153.2126" x="912.5625" y="228.4658">membuat (format "json")</text></g><!--link ReportExportService to ReportColumnMap--><g class="link" data-entity-1="ent0008" data-entity-2="ent0010" data-link-type="dependency" data-source-line="98" id="lnk20"><path codeLine="98" d="M1475.0625,189.0844 C1475.0625,222.675 1475.0625,259.8844 1475.0625,290.3156" fill="none" id="ReportExportService-to-ReportColumnMap" style="stroke:#1E7A5C;stroke-width:0.9375;stroke-dasharray:6.5625,6.5625;"/><polygon fill="#1E7A5C" points="1475.0625,295.0031,1478.8125,286.5656,1475.0625,290.3156,1471.3125,286.5656,1475.0625,295.0031" style="stroke:#1E7A5C;stroke-width:0.9375;stroke-linejoin:miter;stroke-miterlimit:10;"/><text fill="#000000" font-family="sans-serif" font-size="12.1875" lengthAdjust="spacing" textLength="56.6231" x="1476" y="228.4658">memakai</text></g><!--link ExportArchiver to ExportableReport--><g class="link" data-entity-1="ent0009" data-entity-2="ent0002" data-link-type="dependency" data-source-line="99" id="lnk21"><path codeLine="99" d="M423.2344,183.7031 C392.8312,191.4469 361.2938,198.6469 331.3125,204.0281 C301.6688,209.3437 218.0625,195.3656 196.3125,216.2156 C179.5125,232.3219 174.3913,252.2919 173.8569,275.045" fill="none" id="ExportArchiver-to-ExportableReport" style="stroke:#1E7A5C;stroke-width:0.9375;stroke-dasharray:6.5625,6.5625;"/><polygon fill="#1E7A5C" points="173.7469,279.7313,177.6939,271.3841,173.8569,275.045,170.196,271.208,173.7469,279.7313" style="stroke:#1E7A5C;stroke-width:0.9375;stroke-linejoin:miter;stroke-miterlimit:10;"/><text fill="#000000" font-family="sans-serif" font-size="12.1875" lengthAdjust="spacing" textLength="62.33" x="197.25" y="228.4658">menerima</text></g><!--link ExportArchiver to Filesystem--><g class="link" data-entity-1="ent0009" data-entity-2="ent0022" data-link-type="dependency" data-source-line="100" id="lnk23"><path codeLine="100" d="M454.7906,204.2344 C439.4625,215.0156 424.7906,226.8563 411.9375,239.6531 C389.2031,262.2844 373.9305,291.4732 364.5837,312.3982" fill="none" id="ExportArchiver-to-Filesystem" style="stroke:#1E7A5C;stroke-width:0.9375;"/><polygon fill="#1E7A5C" points="362.6719,316.6781,369.537,310.5037,364.5837,312.3982,362.6891,307.4448,362.6719,316.6781" style="stroke:#1E7A5C;stroke-width:0.9375;stroke-linejoin:miter;stroke-miterlimit:10;"/><text fill="#000000" font-family="sans-serif" font-size="12.1875" lengthAdjust="spacing" textLength="144.9646" x="438.6281" y="228.4658">menyimpan / membaca</text></g><!--link ReportQuery to DateRangeFilter--><g class="link" data-entity-1="ent0013" data-entity-2="ent0012" data-link-type="dependency" data-source-line="101" id="lnk24"><path codeLine="101" d="M1982.25,204.3937 C1982.25,237.7594 1982.25,271.1719 1982.25,297.75" fill="none" id="ReportQuery-to-DateRangeFilter" style="stroke:#1E7A5C;stroke-width:0.9375;stroke-dasharray:6.5625,6.5625;"/><polygon fill="#1E7A5C" points="1982.25,302.4375,1986,294,1982.25,297.75,1978.5,294,1982.25,302.4375" style="stroke:#1E7A5C;stroke-width:0.9375;stroke-linejoin:miter;stroke-miterlimit:10;"/><text fill="#000000" font-family="sans-serif" font-size="12.1875" lengthAdjust="spacing" textLength="56.6231" x="1983.1875" y="228.4658">memakai</text></g><!--link ReportExporterRegistry to GMN28--><g class="link" data-entity-1="ent0007" data-entity-2="ent0029" data-link-type="association" data-source-line="112" id="lnk30"><path d="M1045.4156,59.1937 C1074.4875,40.4625 1107.7969,22.875 1141.3125,13.2 C1164.9844,6.375 1561.3125,5.625 1584.75,13.2 C1628.7188,27.4125 1668.3188,62.7656 1694.7188,91.2" fill="none" id="ReportExporterRegistry-GMN28" style="stroke:#1E7A5C;stroke-width:0.9375;stroke-dasharray:6.5625,6.5625;"/></g><?plantuml-src jLPjRzis4FwkNt58FrH1R3TfbwxBsW2AuwnUNcUbG3SKACuIRNEYI8salBXj_lkEakpAakr-26O3jiGxtZttt0lv7DuzwUCz1pWV1h-DWcku75m58NJXAhWRXi4D32x3kzkHUxqT1JTECypJCTCdW5dseg-arHXPqobU1m-PqikN8B9SIKDRdeZE95ncg365IA0nWRMQZtFBXf6I8V_2uB2c8bNC3ClWw4rjKQDCtEBBrxN5EEFmow4tup63YEj8iAOd-Ee1d66KJBNAPTnNGcbuTj6dxxcJA1qpNQt-T7Py_FeLhGPQgt-hnQF1py5nttlql8oiu9J1Nf1bdpwjQDihN71fcPvWnA0a4CU2ZPXxWhTlLyBJqq8Pu03OWsNI4Bl-Ffo08Jxaj1AbF6NtYuor9HCks0scp1-ZOP8UMXgQIGh8dp6almvG76PDvx4TIPLn5mSfuDWKSLNq1TLh6KkfoZJ5jDIhXVGZTCyWOaBuSnJvPf7n2Q-JeDQuAD3IJmcaR-OD3ANRBdmr5YsF7k5yS3My7juFHYlRy0xsVjrx2kC_vdE5y7UZv4Q8_x_hTRSZDkMajQ0i6QRdl5PtDRO67saS45bXZM-dG1rfaKj2VmBzvVCIB2RCdoYTekt018KOKoKHoJ8Nmc5hrlwoC8eTnjzVStK09i-AqgjCEl5OAV5zrmLLbByigoqEjj0Gbf7lvg3__iFDvUTm-DU0R5ENKYWl3m-RMjV1ny-5PhZIEggq3c2SSn7x_-HCB_ORJ5B6BfJsYn7J8OxSpDrItINcG4SpFY_Qgmdwe5Rcmz6WVtyx-dEjp5dLnPNlc9k4v8v0ip2MfKlAhTBCPrMbT63PgXrerbazKOBgoHSyvIxsDqsffft-nccKePsr9QsCqQZDKtcD6GMUMowuNMmAF6OJBdbn8hLAQQLKXk6lyzoQUTN1Lixk4ievMZP2EMN4MJdYTa2PQ9ME66MTUD7b_xh7zG3_SEMniHIhpRItCjVq5Du7zn_2GTZat25jDnHjoarxbBZyiRXOFtFrkcheIAMPO6rPGLdx9FlMwsqx4QWpdAcKIMkyRQV6jswtFSXtQhU7gkTjcNQztcdxy3q1GZITeU4YGRbhQ_k0SNlJSOuMgW45Uv6Px-tlihBX4DXWvc_IQjXPpYjdfDaLXGLCa7kDER4zPAPvYatrRlUqDX5AnGMb3IMyA41YX5wzOftzPbzy1-D9PHbObO6QR9hC0HqUEiqJfA791Sx0K7LstOzS85YUCLYGOPfL2SqWD_RhX1GNB2K4qpsuTZDgJ1Og0WSFT5rmFPOdURQYrrc6X57VqLZJETa5GvuXfiI3YpN62I6YEd3-IQgNcUkMnrxfhaFAckwc7RSHBAOPWQS77cC26TF2MSu9JSyZa-18gAZGV3gpZepD1U90x3f0tUqhHaVKcBeeJq1HqeJ2c1SamTtxknFIAMwtpAL2PUvEWO8QUOwQasBam2T8LmTqwXLermBy2vSKESGv5cJOcOh9ZoPYaPXBiHRDVm00?></g></svg>