<svg xmlns="http://www.w3.org/2000/svg" xmlns:xlink="http://www.w3.org/1999/xlink" contentStyleType="text/css" data-diagram-type="ACTIVITY" height="2054px" preserveAspectRatio="none" style="width:677px;height:2054px;background:#FFFFFF;" version="1.1" viewBox="0 0 677 2054" width="677px" zoomAndPan="magnify"><?plantuml 1.2026.6?><defs/><g><ellipse cx="345.856" cy="25" fill="#222222" rx="10" ry="10" style="stroke:#222222;stroke-width:1;"/><rect fill="#EDF7F1" height="33.9688" rx="12.5" ry="12.5" style="stroke:#1E7A5C;stroke-width:0.5;" width="261.2188" x="215.2466" y="55"/><text fill="#000000" font-family="sans-serif" font-size="12" lengthAdjust="spacing" textLength="241.2188" x="225.2466" y="76.1387">Pelanggan datang membawa perangkat</text><rect fill="#EDF7F1" height="33.9688" rx="12.5" ry="12.5" style="stroke:#1E7A5C;stroke-width:0.5;" width="225.9512" x="232.8804" y="108.9688"/><text fill="#000000" font-family="sans-serif" font-size="12" lengthAdjust="spacing" textLength="205.9512" x="242.8804" y="130.1074">Kasir membuka halaman Check-in</text><rect fill="#EDF7F1" height="33.9688" rx="12.5" ry="12.5" style="stroke:#1E7A5C;stroke-width:0.5;" width="271.4902" x="210.1108" y="162.9375"/><text fill="#000000" font-family="sans-serif" font-size="12" lengthAdjust="spacing" textLength="251.4902" x="220.1108" y="184.0762">Isi nomor HP + data perangkat + keluhan</text><rect fill="#EDF7F1" height="33.9688" rx="12.5" ry="12.5" style="stroke:#1E7A5C;stroke-width:0.5;" width="229.4551" x="231.1284" y="265.3086"/><text fill="#000000" font-family="sans-serif" font-size="12" lengthAdjust="spacing" textLength="209.4551" x="241.1284" y="286.4473">Tampilkan pesan format nomor HP</text><ellipse cx="345.856" cy="338.793" fill="none" rx="11" ry="11" style="stroke:#222222;stroke-width:1;"/><ellipse cx="345.856" cy="338.793" fill="#222222" rx="6" ry="6" style="stroke:#222222;stroke-width:1;"/><polygon fill="#FFF7E8" points="232.2493,216.9063,459.4626,216.9063,471.4626,228.9063,459.4626,240.9063,232.2493,240.9063,220.2493,228.9063,232.2493,216.9063" style="stroke:#1E7A5C;stroke-width:0.5;stroke-linejoin:miter;stroke-miterlimit:10;"/><text fill="#000000" font-family="sans-serif" font-size="11" lengthAdjust="spacing" textLength="27.4624" x="349.856" y="251.1167">tidak</text><text fill="#000000" font-family="sans-serif" font-size="11" lengthAdjust="spacing" textLength="227.2134" x="232.2493" y="232.7144">Nomor HP berawalan 08 dan 10-13 digit?</text><text fill="#000000" font-family="sans-serif" font-size="11" lengthAdjust="spacing" textLength="13.2505" x="471.4626" y="226.312">ya</text><polygon fill="#FFF7E8" points="270.6902,391.793,421.0217,391.793,433.0217,403.793,421.0217,415.793,270.6902,415.793,258.6902,403.793,270.6902,391.793" style="stroke:#1E7A5C;stroke-width:0.5;stroke-linejoin:miter;stroke-miterlimit:10;"/><text fill="#000000" font-family="sans-serif" font-size="11" lengthAdjust="spacing" textLength="150.3315" x="270.6902" y="407.6011">Nomor HP sudah terdaftar?</text><text fill="#000000" font-family="sans-serif" font-size="11" lengthAdjust="spacing" textLength="13.2505" x="245.4397" y="401.1987">ya</text><text fill="#000000" font-family="sans-serif" font-size="11" lengthAdjust="spacing" textLength="27.4624" x="433.0217" y="401.1987">tidak</text><path d="M219.916,425.793 L219.916,441.9258 L199.916,445.9258 L219.916,449.9258 L219.916,466.0586 A0,0 0 0 0 219.916,466.0586 L490.4932,466.0586 A0,0 0 0 0 490.4932,466.0586 L490.4932,435.793 L480.4932,425.793 L219.916,425.793 A0,0 0 0 0 219.916,425.793" fill="#FEFFDD" style="stroke:#181818;stroke-width:0.5;"/><path d="M480.4932,425.793 L480.4932,435.793 L490.4932,435.793 L480.4932,425.793" fill="#FEFFDD" style="stroke:#181818;stroke-width:0.5;"/><text fill="#000000" font-family="sans-serif" font-size="13" lengthAdjust="spacing" textLength="249.5771" x="225.916" y="442.8599">Nama dan alamat lama TIDAK ditimpa</text><text fill="#000000" font-family="sans-serif" font-size="13" lengthAdjust="spacing" textLength="243.2803" x="225.916" y="457.9927">input baru yang mungkin salah ketik.</text><rect fill="#EDF7F1" height="33.9688" rx="12.5" ry="12.5" style="stroke:#1E7A5C;stroke-width:0.5;" width="183.916" x="16" y="428.9414"/><text fill="#000000" font-family="sans-serif" font-size="12" lengthAdjust="spacing" textLength="163.916" x="26" y="450.0801">Pakai data pelanggan lama</text><rect fill="#EDF7F1" height="33.9688" rx="12.5" ry="12.5" style="stroke:#1E7A5C;stroke-width:0.5;" width="146.5215" x="510.4932" y="425.793"/><text fill="#000000" font-family="sans-serif" font-size="12" lengthAdjust="spacing" textLength="126.5215" x="520.4932" y="446.9316">Buat pelanggan baru</text><polygon fill="#FFF7E8" points="345.856,472.0586,357.856,484.0586,345.856,496.0586,333.856,484.0586,345.856,472.0586" style="stroke:#1E7A5C;stroke-width:0.5;stroke-linejoin:miter;stroke-miterlimit:10;"/><rect fill="#EDF7F1" height="47.9375" rx="12.5" ry="12.5" style="stroke:#1E7A5C;stroke-width:0.5;" width="240.9922" x="225.3599" y="516.0586"/><text fill="#000000" font-family="sans-serif" font-size="12" lengthAdjust="spacing" textLength="220.9922" x="235.3599" y="537.1973">Buat nomor nota SRV-YYYYMM-XXXX</text><text fill="#000000" font-family="sans-serif" font-size="12" lengthAdjust="spacing" textLength="147.1816" x="235.3599" y="551.166">(transaksi + kunci baris)</text><rect fill="#EDF7F1" height="33.9688" rx="12.5" ry="12.5" style="stroke:#1E7A5C;stroke-width:0.5;" width="141.6816" x="275.0151" y="583.9961"/><text fill="#000000" font-family="sans-serif" font-size="12" lengthAdjust="spacing" textLength="121.6816" x="285.0151" y="605.1348">Cetak Tanda Terima</text><rect fill="#EDF7F1" height="33.9688" rx="12.5" ry="12.5" style="stroke:#1E7A5C;stroke-width:0.5;" width="274.2383" x="208.7368" y="681.9648"/><text fill="#000000" font-family="sans-serif" font-size="12" lengthAdjust="spacing" textLength="254.2383" x="218.7368" y="703.1035">Teknisi memindahkan status satu langkah</text><rect fill="#EDF7F1" height="33.9688" rx="12.5" ry="12.5" style="stroke:#1E7A5C;stroke-width:0.5;" width="193.6484" x="249.0317" y="735.9336"/><text fill="#000000" font-family="sans-serif" font-size="12" lengthAdjust="spacing" textLength="173.6484" x="259.0317" y="757.0723">Catat diagnosa dan tarif jasa</text><rect fill="#EDF7F1" height="33.9688" rx="12.5" ry="12.5" style="stroke:#1E7A5C;stroke-width:0.5;" width="143.6035" x="274.0542" y="838.3047"/><text fill="#000000" font-family="sans-serif" font-size="12" lengthAdjust="spacing" textLength="123.6035" x="284.0542" y="859.4434">Pasang suku cadang</text><rect fill="#EDF7F1" height="33.9688" rx="12.5" ry="12.5" style="stroke:#1E7A5C;stroke-width:0.5;" width="253.4492" x="219.1313" y="907.2734"/><text fill="#000000" font-family="sans-serif" font-size="12" lengthAdjust="spacing" textLength="233.4492" x="229.1313" y="928.4121">Stok terpotong, tagihan dihitung ulang</text><polygon fill="#FFF7E8" points="292.2095,789.9023,399.5024,789.9023,411.5024,801.9023,399.5024,813.9023,292.2095,813.9023,280.2095,801.9023,292.2095,789.9023" style="stroke:#1E7A5C;stroke-width:0.5;stroke-linejoin:miter;stroke-miterlimit:10;"/><text fill="#000000" font-family="sans-serif" font-size="11" lengthAdjust="spacing" textLength="13.2505" x="349.856" y="824.1128">ya</text><text fill="#000000" font-family="sans-serif" font-size="11" lengthAdjust="spacing" textLength="107.293" x="292.2095" y="805.7104">Perlu suku cadang?</text><text fill="#000000" font-family="sans-serif" font-size="11" lengthAdjust="spacing" textLength="27.4624" x="411.5024" y="799.3081">tidak</text><polygon fill="#FFF7E8" points="345.856,961.2422,357.856,973.2422,345.856,985.2422,333.856,973.2422,345.856,961.2422" style="stroke:#1E7A5C;stroke-width:0.5;stroke-linejoin:miter;stroke-miterlimit:10;"/><polygon fill="#FFF7E8" points="345.856,637.9648,357.856,649.9648,345.856,661.9648,333.856,649.9648,345.856,637.9648" style="stroke:#1E7A5C;stroke-width:0.5;stroke-linejoin:miter;stroke-miterlimit:10;"/><polygon fill="#FFF7E8" points="264.9404,1005.2422,426.7715,1005.2422,438.7715,1017.2422,426.7715,1029.2422,264.9404,1029.2422,252.9404,1017.2422,264.9404,1005.2422" style="stroke:#1E7A5C;stroke-width:0.5;stroke-linejoin:miter;stroke-miterlimit:10;"/><text fill="#000000" font-family="sans-serif" font-size="11" lengthAdjust="spacing" textLength="27.4624" x="349.856" y="1039.4526">tidak</text><text fill="#000000" font-family="sans-serif" font-size="11" lengthAdjust="spacing" textLength="161.8311" x="264.9404" y="1021.0503">Status belum "Siap Diambil"?</text><text fill="#000000" font-family="sans-serif" font-size="11" lengthAdjust="spacing" textLength="13.2505" x="438.7715" y="1014.6479">ya</text><rect fill="#EDF7F1" height="33.9688" rx="12.5" ry="12.5" style="stroke:#1E7A5C;stroke-width:0.5;" width="184.373" x="253.6694" y="1109.355"/><text fill="#000000" font-family="sans-serif" font-size="12" lengthAdjust="spacing" textLength="164.373" x="263.6694" y="1130.4937">Admin membatalkan servis</text><rect fill="#EDF7F1" height="33.9688" rx="12.5" ry="12.5" style="stroke:#1E7A5C;stroke-width:0.5;" width="259.666" x="216.0229" y="1163.3237"/><text fill="#000000" font-family="sans-serif" font-size="12" lengthAdjust="spacing" textLength="239.666" x="226.0229" y="1184.4624">Stok seluruh suku cadang dikembalikan</text><rect fill="#EDF7F1" height="33.9688" rx="12.5" ry="12.5" style="stroke:#1E7A5C;stroke-width:0.5;" width="190.0684" x="250.8218" y="1225.8081"/><text fill="#000000" font-family="sans-serif" font-size="12" lengthAdjust="spacing" textLength="170.0684" x="260.8218" y="1246.9468">Status menjadi "Dibatalkan"</text><ellipse cx="345.856" cy="1290.7769" fill="none" rx="11" ry="11" style="stroke:#222222;stroke-width:1;"/><ellipse cx="345.856" cy="1290.7769" fill="#222222" rx="6" ry="6" style="stroke:#222222;stroke-width:1;"/><polygon fill="#FFF7E8" points="278.8516,1060.9526,412.8604,1060.9526,424.8604,1072.9526,412.8604,1084.9526,278.8516,1084.9526,266.8516,1072.9526,278.8516,1060.9526" style="stroke:#1E7A5C;stroke-width:0.5;stroke-linejoin:miter;stroke-miterlimit:10;"/><text fill="#000000" font-family="sans-serif" font-size="11" lengthAdjust="spacing" textLength="27.4624" x="349.856" y="1095.1631">tidak</text><text fill="#000000" font-family="sans-serif" font-size="11" lengthAdjust="spacing" textLength="134.0088" x="278.8516" y="1076.7607">Unit diambil pelanggan?</text><text fill="#000000" font-family="sans-serif" font-size="11" lengthAdjust="spacing" textLength="13.2505" x="424.8604" y="1070.3584">ya</text><rect fill="#EDF7F1" height="33.9688" rx="12.5" ry="12.5" style="stroke:#1E7A5C;stroke-width:0.5;" width="263.2695" x="214.2212" y="1343.7769"/><text fill="#000000" font-family="sans-serif" font-size="12" lengthAdjust="spacing" textLength="243.2695" x="224.2212" y="1364.9155">Kasir memilih metode bayar (tunai / QR)</text><rect fill="#EDF7F1" height="33.9688" rx="12.5" ry="12.5" style="stroke:#1E7A5C;stroke-width:0.5;" width="221.6211" x="235.0454" y="1494.5503"/><text fill="#000000" font-family="sans-serif" font-size="12" lengthAdjust="spacing" textLength="201.6211" x="245.0454" y="1515.689">Minta centang konfirmasi manual</text><ellipse cx="345.856" cy="1568.0347" fill="none" rx="11" ry="11" style="stroke:#222222;stroke-width:1;"/><ellipse cx="345.856" cy="1568.0347" fill="#222222" rx="6" ry="6" style="stroke:#222222;stroke-width:1;"/><polygon fill="#FFF7E8" points="254.3862,1446.1479,437.3257,1446.1479,449.3257,1458.1479,437.3257,1470.1479,254.3862,1470.1479,242.3862,1458.1479,254.3862,1446.1479" style="stroke:#1E7A5C;stroke-width:0.5;stroke-linejoin:miter;stroke-miterlimit:10;"/><text fill="#000000" font-family="sans-serif" font-size="11" lengthAdjust="spacing" textLength="34.4932" x="349.856" y="1480.3584">belum</text><text fill="#000000" font-family="sans-serif" font-size="11" lengthAdjust="spacing" textLength="182.9395" x="254.3862" y="1461.9561">Uang sudah benar-benar masuk?</text><text fill="#000000" font-family="sans-serif" font-size="11" lengthAdjust="spacing" textLength="13.2505" x="449.3257" y="1455.5537">ya</text><polygon fill="#FFF7E8" points="312.5122,1397.7456,379.1997,1397.7456,391.1997,1409.7456,379.1997,1421.7456,312.5122,1421.7456,300.5122,1409.7456,312.5122,1397.7456" style="stroke:#1E7A5C;stroke-width:0.5;stroke-linejoin:miter;stroke-miterlimit:10;"/><text fill="#000000" font-family="sans-serif" font-size="11" lengthAdjust="spacing" textLength="13.2505" x="349.856" y="1431.9561">ya</text><text fill="#000000" font-family="sans-serif" font-size="11" lengthAdjust="spacing" textLength="66.6875" x="312.5122" y="1413.5537">Metode QR?</text><text fill="#000000" font-family="sans-serif" font-size="11" lengthAdjust="spacing" textLength="28.0532" x="391.1997" y="1407.1514">tunai</text><polygon fill="#FFF7E8" points="345.856,1621.0347,357.856,1633.0347,345.856,1645.0347,333.856,1633.0347,345.856,1621.0347" style="stroke:#1E7A5C;stroke-width:0.5;stroke-linejoin:miter;stroke-miterlimit:10;"/><rect fill="#EDF7F1" height="33.9688" rx="12.5" ry="12.5" style="stroke:#1E7A5C;stroke-width:0.5;" width="295.6016" x="198.0552" y="1665.0347"/><text fill="#000000" font-family="sans-serif" font-size="12" lengthAdjust="spacing" textLength="275.6016" x="208.0552" y="1686.1733">Status menjadi "Selesai", pembayaran LUNAS</text><rect fill="#EDF7F1" height="33.9688" rx="12.5" ry="12.5" style="stroke:#1E7A5C;stroke-width:0.5;" width="217.1328" x="237.2896" y="1719.0034"/><text fill="#000000" font-family="sans-serif" font-size="12" lengthAdjust="spacing" textLength="197.1328" x="247.2896" y="1740.1421">Set tanggal kedaluwarsa garansi</text><rect fill="#EDF7F1" height="33.9688" rx="12.5" ry="12.5" style="stroke:#1E7A5C;stroke-width:0.5;" width="197.1289" x="247.2915" y="1772.9722"/><text fill="#000000" font-family="sans-serif" font-size="12" lengthAdjust="spacing" textLength="177.1289" x="257.2915" y="1794.1108">Cetak Faktur + Kartu Garansi</text><rect fill="#EDF7F1" height="33.9688" rx="12.5" ry="12.5" style="stroke:#1E7A5C;stroke-width:0.5;" width="298.6016" x="196.5552" y="1826.9409"/><text fill="#000000" font-family="sans-serif" font-size="12" lengthAdjust="spacing" textLength="278.6016" x="206.5552" y="1848.0796">Pelanggan memantau lewat /track tanpa login</text><polygon fill="#FFF7E8" points="253.1858,1880.9097,438.5261,1880.9097,450.5261,1892.9097,438.5261,1904.9097,253.1858,1904.9097,241.1858,1892.9097,253.1858,1880.9097" style="stroke:#1E7A5C;stroke-width:0.5;stroke-linejoin:miter;stroke-miterlimit:10;"/><text fill="#000000" font-family="sans-serif" font-size="11" lengthAdjust="spacing" textLength="185.3403" x="253.1858" y="1896.7178">Hari ini &lt;= tanggal kedaluwarsa?</text><text fill="#000000" font-family="sans-serif" font-size="11" lengthAdjust="spacing" textLength="13.2505" x="227.9353" y="1890.3154">ya</text><text fill="#000000" font-family="sans-serif" font-size="11" lengthAdjust="spacing" textLength="27.4624" x="450.5261" y="1890.3154">tidak</text><rect fill="#EDF7F1" height="47.9375" rx="12.5" ry="12.5" style="stroke:#1E7A5C;stroke-width:0.5;" width="200.2578" x="131.0569" y="1914.9097"/><text fill="#000000" font-family="sans-serif" font-size="12" lengthAdjust="spacing" textLength="166.459" x="141.0569" y="1936.0483">Kartu garansi menampilkan</text><text fill="#000000" font-family="sans-serif" font-size="12" lengthAdjust="spacing" textLength="180.2578" x="141.0569" y="1950.0171">"Garansi Aktif (n hari tersisa)"</text><rect fill="#EDF7F1" height="47.9375" rx="12.5" ry="12.5" style="stroke:#1E7A5C;stroke-width:0.5;" width="186.459" x="367.2966" y="1914.9097"/><text fill="#000000" font-family="sans-serif" font-size="12" lengthAdjust="spacing" textLength="166.459" x="377.2966" y="1936.0483">Kartu garansi menampilkan</text><text fill="#000000" font-family="sans-serif" font-size="12" lengthAdjust="spacing" textLength="129.6914" x="377.2966" y="1950.0171">"Masa Garansi Habis"</text><polygon fill="#FFF7E8" points="345.856,1968.8472,357.856,1980.8472,345.856,1992.8472,333.856,1980.8472,345.856,1968.8472" style="stroke:#1E7A5C;stroke-width:0.5;stroke-linejoin:miter;stroke-miterlimit:10;"/><ellipse cx="345.856" cy="2023.8472" fill="none" rx="11" ry="11" style="stroke:#222222;stroke-width:1;"/><ellipse cx="345.856" cy="2023.8472" fill="#222222" rx="6" ry="6" style="stroke:#222222;stroke-width:1;"/><line style="stroke:#181818;stroke-width:1;" x1="345.856" x2="345.856" y1="35" y2="55"/><polygon fill="#181818" points="341.856,45,345.856,55,349.856,45,345.856,49" style="stroke:#181818;stroke-width:1;stroke-linejoin:miter;stroke-miterlimit:10;"/><line style="stroke:#181818;stroke-width:1;" x1="345.856" x2="345.856" y1="88.9688" y2="108.9688"/><polygon fill="#181818" points="341.856,98.9688,345.856,108.9688,349.856,98.9688,345.856,102.9688" style="stroke:#181818;stroke-width:1;stroke-linejoin:miter;stroke-miterlimit:10;"/><line style="stroke:#181818;stroke-width:1;" x1="345.856" x2="345.856" y1="142.9375" y2="162.9375"/><polygon fill="#181818" points="341.856,152.9375,345.856,162.9375,349.856,152.9375,345.856,156.9375" style="stroke:#181818;stroke-width:1;stroke-linejoin:miter;stroke-miterlimit:10;"/><line style="stroke:#181818;stroke-width:1;" x1="345.856" x2="345.856" y1="299.2773" y2="327.793"/><polygon fill="#181818" points="341.856,317.793,345.856,327.793,349.856,317.793,345.856,321.793" style="stroke:#181818;stroke-width:1;stroke-linejoin:miter;stroke-miterlimit:10;"/><line style="stroke:#181818;stroke-width:1;" x1="345.856" x2="345.856" y1="240.9063" y2="265.3086"/><polygon fill="#181818" points="341.856,255.3086,345.856,265.3086,349.856,255.3086,345.856,259.3086" style="stroke:#181818;stroke-width:1;stroke-linejoin:miter;stroke-miterlimit:10;"/><line style="stroke:#181818;stroke-width:1;" x1="471.4626" x2="483.4626" y1="228.9063" y2="228.9063"/><polygon fill="#181818" points="479.4626,297.793,483.4626,307.793,487.4626,297.793,483.4626,301.793" style="stroke:#181818;stroke-width:1;stroke-linejoin:miter;stroke-miterlimit:10;"/><line style="stroke:#181818;stroke-width:1;" x1="483.4626" x2="483.4626" y1="228.9063" y2="371.793"/><line style="stroke:#181818;stroke-width:1;" x1="483.4626" x2="345.856" y1="371.793" y2="371.793"/><line style="stroke:#181818;stroke-width:1;" x1="345.856" x2="345.856" y1="371.793" y2="391.793"/><polygon fill="#181818" points="341.856,381.793,345.856,391.793,349.856,381.793,345.856,385.793" style="stroke:#181818;stroke-width:1;stroke-linejoin:miter;stroke-miterlimit:10;"/><line style="stroke:#181818;stroke-width:1;" x1="345.856" x2="345.856" y1="196.9063" y2="216.9063"/><polygon fill="#181818" points="341.856,206.9063,345.856,216.9063,349.856,206.9063,345.856,210.9063" style="stroke:#181818;stroke-width:1;stroke-linejoin:miter;stroke-miterlimit:10;"/><line style="stroke:#181818;stroke-width:1;" x1="258.6902" x2="107.958" y1="403.793" y2="403.793"/><line style="stroke:#181818;stroke-width:1;" x1="107.958" x2="107.958" y1="403.793" y2="428.9414"/><polygon fill="#181818" points="103.958,418.9414,107.958,428.9414,111.958,418.9414,107.958,422.9414" style="stroke:#181818;stroke-width:1;stroke-linejoin:miter;stroke-miterlimit:10;"/><line style="stroke:#181818;stroke-width:1;" x1="433.0217" x2="583.7539" y1="403.793" y2="403.793"/><line style="stroke:#181818;stroke-width:1;" x1="583.7539" x2="583.7539" y1="403.793" y2="425.793"/><polygon fill="#181818" points="579.7539,415.793,583.7539,425.793,587.7539,415.793,583.7539,419.793" style="stroke:#181818;stroke-width:1;stroke-linejoin:miter;stroke-miterlimit:10;"/><line style="stroke:#181818;stroke-width:1;" x1="107.958" x2="107.958" y1="462.9102" y2="484.0586"/><line style="stroke:#181818;stroke-width:1;" x1="107.958" x2="333.856" y1="484.0586" y2="484.0586"/><polygon fill="#181818" points="323.856,480.0586,333.856,484.0586,323.856,488.0586,327.856,484.0586" style="stroke:#181818;stroke-width:1;stroke-linejoin:miter;stroke-miterlimit:10;"/><line style="stroke:#181818;stroke-width:1;" x1="583.7539" x2="583.7539" y1="459.7617" y2="484.0586"/><line style="stroke:#181818;stroke-width:1;" x1="583.7539" x2="357.856" y1="484.0586" y2="484.0586"/><polygon fill="#181818" points="367.856,480.0586,357.856,484.0586,367.856,488.0586,363.856,484.0586" style="stroke:#181818;stroke-width:1;stroke-linejoin:miter;stroke-miterlimit:10;"/><line style="stroke:#181818;stroke-width:1;" x1="345.856" x2="345.856" y1="496.0586" y2="516.0586"/><polygon fill="#181818" points="341.856,506.0586,345.856,516.0586,349.856,506.0586,345.856,510.0586" style="stroke:#181818;stroke-width:1;stroke-linejoin:miter;stroke-miterlimit:10;"/><line style="stroke:#181818;stroke-width:1;" x1="345.856" x2="345.856" y1="563.9961" y2="583.9961"/><polygon fill="#181818" points="341.856,573.9961,345.856,583.9961,349.856,573.9961,345.856,577.9961" style="stroke:#181818;stroke-width:1;stroke-linejoin:miter;stroke-miterlimit:10;"/><line style="stroke:#181818;stroke-width:1;" x1="345.856" x2="345.856" y1="715.9336" y2="735.9336"/><polygon fill="#181818" points="341.856,725.9336,345.856,735.9336,349.856,725.9336,345.856,729.9336" style="stroke:#181818;stroke-width:1;stroke-linejoin:miter;stroke-miterlimit:10;"/><line style="stroke:#181818;stroke-width:1;" x1="345.856" x2="345.856" y1="872.2734" y2="907.2734"/><polygon fill="#181818" points="341.856,897.2734,345.856,907.2734,349.856,897.2734,345.856,901.2734" style="stroke:#181818;stroke-width:1;stroke-linejoin:miter;stroke-miterlimit:10;"/><line style="stroke:#181818;stroke-width:1;" x1="345.856" x2="345.856" y1="813.9023" y2="838.3047"/><polygon fill="#181818" points="341.856,828.3047,345.856,838.3047,349.856,828.3047,345.856,832.3047" style="stroke:#181818;stroke-width:1;stroke-linejoin:miter;stroke-miterlimit:10;"/><line style="stroke:#181818;stroke-width:1;" x1="411.5024" x2="482.5806" y1="801.9023" y2="801.9023"/><polygon fill="#181818" points="478.5806,879.7734,482.5806,889.7734,486.5806,879.7734,482.5806,883.7734" style="stroke:#181818;stroke-width:1;stroke-linejoin:miter;stroke-miterlimit:10;"/><line style="stroke:#181818;stroke-width:1;" x1="482.5806" x2="482.5806" y1="801.9023" y2="973.2422"/><line style="stroke:#181818;stroke-width:1;" x1="482.5806" x2="357.856" y1="973.2422" y2="973.2422"/><polygon fill="#181818" points="367.856,969.2422,357.856,973.2422,367.856,977.2422,363.856,973.2422" style="stroke:#181818;stroke-width:1;stroke-linejoin:miter;stroke-miterlimit:10;"/><line style="stroke:#181818;stroke-width:1;" x1="345.856" x2="345.856" y1="941.2422" y2="961.2422"/><polygon fill="#181818" points="341.856,951.2422,345.856,961.2422,349.856,951.2422,345.856,955.2422" style="stroke:#181818;stroke-width:1;stroke-linejoin:miter;stroke-miterlimit:10;"/><line style="stroke:#181818;stroke-width:1;" x1="345.856" x2="345.856" y1="769.9023" y2="789.9023"/><polygon fill="#181818" points="341.856,779.9023,345.856,789.9023,349.856,779.9023,345.856,783.9023" style="stroke:#181818;stroke-width:1;stroke-linejoin:miter;stroke-miterlimit:10;"/><line style="stroke:#181818;stroke-width:1;" x1="345.856" x2="345.856" y1="661.9648" y2="681.9648"/><polygon fill="#181818" points="341.856,671.9648,345.856,681.9648,349.856,671.9648,345.856,675.9648" style="stroke:#181818;stroke-width:1;stroke-linejoin:miter;stroke-miterlimit:10;"/><line style="stroke:#181818;stroke-width:1;" x1="438.7715" x2="506.5806" y1="1017.2422" y2="1017.2422"/><polygon fill="#181818" points="502.5806,830.8047,506.5806,820.8047,510.5806,830.8047,506.5806,826.8047" style="stroke:#181818;stroke-width:1;stroke-linejoin:miter;stroke-miterlimit:10;"/><line style="stroke:#181818;stroke-width:1;" x1="506.5806" x2="506.5806" y1="649.9648" y2="1017.2422"/><line style="stroke:#181818;stroke-width:1;" x1="506.5806" x2="357.856" y1="649.9648" y2="649.9648"/><polygon fill="#181818" points="367.856,645.9648,357.856,649.9648,367.856,653.9648,363.856,649.9648" style="stroke:#181818;stroke-width:1;stroke-linejoin:miter;stroke-miterlimit:10;"/><line style="stroke:#181818;stroke-width:1;" x1="345.856" x2="345.856" y1="985.2422" y2="1005.2422"/><polygon fill="#181818" points="341.856,995.2422,345.856,1005.2422,349.856,995.2422,345.856,999.2422" style="stroke:#181818;stroke-width:1;stroke-linejoin:miter;stroke-miterlimit:10;"/><line style="stroke:#181818;stroke-width:1;" x1="345.856" x2="345.856" y1="617.9648" y2="637.9648"/><polygon fill="#181818" points="341.856,627.9648,345.856,637.9648,349.856,627.9648,345.856,631.9648" style="stroke:#181818;stroke-width:1;stroke-linejoin:miter;stroke-miterlimit:10;"/><line style="stroke:#181818;stroke-width:1;" x1="345.856" x2="345.856" y1="1143.3237" y2="1163.3237"/><polygon fill="#181818" points="341.856,1153.3237,345.856,1163.3237,349.856,1153.3237,345.856,1157.3237" style="stroke:#181818;stroke-width:1;stroke-linejoin:miter;stroke-miterlimit:10;"/><line style="stroke:#181818;stroke-width:1;" x1="345.856" x2="345.856" y1="1197.2925" y2="1225.8081"/><polygon fill="#181818" points="341.856,1215.8081,345.856,1225.8081,349.856,1215.8081,345.856,1219.8081" style="stroke:#181818;stroke-width:1;stroke-linejoin:miter;stroke-miterlimit:10;"/><line style="stroke:#181818;stroke-width:1;" x1="345.856" x2="345.856" y1="1259.7769" y2="1279.7769"/><polygon fill="#181818" points="341.856,1269.7769,345.856,1279.7769,349.856,1269.7769,345.856,1273.7769" style="stroke:#181818;stroke-width:1;stroke-linejoin:miter;stroke-miterlimit:10;"/><line style="stroke:#181818;stroke-width:1;" x1="345.856" x2="345.856" y1="1084.9526" y2="1109.355"/><polygon fill="#181818" points="341.856,1099.355,345.856,1109.355,349.856,1099.355,345.856,1103.355" style="stroke:#181818;stroke-width:1;stroke-linejoin:miter;stroke-miterlimit:10;"/><line style="stroke:#181818;stroke-width:1;" x1="424.8604" x2="485.689" y1="1072.9526" y2="1072.9526"/><polygon fill="#181818" points="481.689,1195.8081,485.689,1205.8081,489.689,1195.8081,485.689,1199.8081" style="stroke:#181818;stroke-width:1;stroke-linejoin:miter;stroke-miterlimit:10;"/><line style="stroke:#181818;stroke-width:1;" x1="485.689" x2="485.689" y1="1072.9526" y2="1323.7769"/><line style="stroke:#181818;stroke-width:1;" x1="485.689" x2="345.856" y1="1323.7769" y2="1323.7769"/><line style="stroke:#181818;stroke-width:1;" x1="345.856" x2="345.856" y1="1323.7769" y2="1343.7769"/><polygon fill="#181818" points="341.856,1333.7769,345.856,1343.7769,349.856,1333.7769,345.856,1337.7769" style="stroke:#181818;stroke-width:1;stroke-linejoin:miter;stroke-miterlimit:10;"/><line style="stroke:#181818;stroke-width:1;" x1="345.856" x2="345.856" y1="1029.2422" y2="1060.9526"/><polygon fill="#181818" points="341.856,1050.9526,345.856,1060.9526,349.856,1050.9526,345.856,1054.9526" style="stroke:#181818;stroke-width:1;stroke-linejoin:miter;stroke-miterlimit:10;"/><line style="stroke:#181818;stroke-width:1;" x1="345.856" x2="345.856" y1="1528.519" y2="1557.0347"/><polygon fill="#181818" points="341.856,1547.0347,345.856,1557.0347,349.856,1547.0347,345.856,1551.0347" style="stroke:#181818;stroke-width:1;stroke-linejoin:miter;stroke-miterlimit:10;"/><line style="stroke:#181818;stroke-width:1;" x1="345.856" x2="345.856" y1="1470.1479" y2="1494.5503"/><polygon fill="#181818" points="341.856,1484.5503,345.856,1494.5503,349.856,1484.5503,345.856,1488.5503" style="stroke:#181818;stroke-width:1;stroke-linejoin:miter;stroke-miterlimit:10;"/><line style="stroke:#181818;stroke-width:1;" x1="449.3257" x2="466.6665" y1="1458.1479" y2="1458.1479"/><polygon fill="#181818" points="462.6665,1527.0347,466.6665,1537.0347,470.6665,1527.0347,466.6665,1531.0347" style="stroke:#181818;stroke-width:1;stroke-linejoin:miter;stroke-miterlimit:10;"/><line style="stroke:#181818;stroke-width:1;" x1="466.6665" x2="466.6665" y1="1458.1479" y2="1601.0347"/><line style="stroke:#181818;stroke-width:1;" x1="466.6665" x2="345.856" y1="1601.0347" y2="1601.0347"/><line style="stroke:#181818;stroke-width:1;" x1="345.856" x2="345.856" y1="1601.0347" y2="1621.0347"/><polygon fill="#181818" points="341.856,1611.0347,345.856,1621.0347,349.856,1611.0347,345.856,1615.0347" style="stroke:#181818;stroke-width:1;stroke-linejoin:miter;stroke-miterlimit:10;"/><line style="stroke:#181818;stroke-width:1;" x1="345.856" x2="345.856" y1="1421.7456" y2="1446.1479"/><polygon fill="#181818" points="341.856,1436.1479,345.856,1446.1479,349.856,1436.1479,345.856,1440.1479" style="stroke:#181818;stroke-width:1;stroke-linejoin:miter;stroke-miterlimit:10;"/><line style="stroke:#181818;stroke-width:1;" x1="391.1997" x2="488.6665" y1="1409.7456" y2="1409.7456"/><polygon fill="#181818" points="484.6665,1521.0347,488.6665,1531.0347,492.6665,1521.0347,488.6665,1525.0347" style="stroke:#181818;stroke-width:1;stroke-linejoin:miter;stroke-miterlimit:10;"/><line style="stroke:#181818;stroke-width:1;" x1="488.6665" x2="488.6665" y1="1409.7456" y2="1633.0347"/><line style="stroke:#181818;stroke-width:1;" x1="488.6665" x2="357.856" y1="1633.0347" y2="1633.0347"/><polygon fill="#181818" points="367.856,1629.0347,357.856,1633.0347,367.856,1637.0347,363.856,1633.0347" style="stroke:#181818;stroke-width:1;stroke-linejoin:miter;stroke-miterlimit:10;"/><line style="stroke:#181818;stroke-width:1;" x1="345.856" x2="345.856" y1="1377.7456" y2="1397.7456"/><polygon fill="#181818" points="341.856,1387.7456,345.856,1397.7456,349.856,1387.7456,345.856,1391.7456" style="stroke:#181818;stroke-width:1;stroke-linejoin:miter;stroke-miterlimit:10;"/><line style="stroke:#181818;stroke-width:1;" x1="345.856" x2="345.856" y1="1645.0347" y2="1665.0347"/><polygon fill="#181818" points="341.856,1655.0347,345.856,1665.0347,349.856,1655.0347,345.856,1659.0347" style="stroke:#181818;stroke-width:1;stroke-linejoin:miter;stroke-miterlimit:10;"/><line style="stroke:#181818;stroke-width:1;" x1="345.856" x2="345.856" y1="1699.0034" y2="1719.0034"/><polygon fill="#181818" points="341.856,1709.0034,345.856,1719.0034,349.856,1709.0034,345.856,1713.0034" style="stroke:#181818;stroke-width:1;stroke-linejoin:miter;stroke-miterlimit:10;"/><line style="stroke:#181818;stroke-width:1;" x1="345.856" x2="345.856" y1="1752.9722" y2="1772.9722"/><polygon fill="#181818" points="341.856,1762.9722,345.856,1772.9722,349.856,1762.9722,345.856,1766.9722" style="stroke:#181818;stroke-width:1;stroke-linejoin:miter;stroke-miterlimit:10;"/><line style="stroke:#181818;stroke-width:1;" x1="345.856" x2="345.856" y1="1806.9409" y2="1826.9409"/><polygon fill="#181818" points="341.856,1816.9409,345.856,1826.9409,349.856,1816.9409,345.856,1820.9409" style="stroke:#181818;stroke-width:1;stroke-linejoin:miter;stroke-miterlimit:10;"/><line style="stroke:#181818;stroke-width:1;" x1="241.1858" x2="231.1858" y1="1892.9097" y2="1892.9097"/><line style="stroke:#181818;stroke-width:1;" x1="231.1858" x2="231.1858" y1="1892.9097" y2="1914.9097"/><polygon fill="#181818" points="227.1858,1904.9097,231.1858,1914.9097,235.1858,1904.9097,231.1858,1908.9097" style="stroke:#181818;stroke-width:1;stroke-linejoin:miter;stroke-miterlimit:10;"/><line style="stroke:#181818;stroke-width:1;" x1="450.5261" x2="460.5261" y1="1892.9097" y2="1892.9097"/><line style="stroke:#181818;stroke-width:1;" x1="460.5261" x2="460.5261" y1="1892.9097" y2="1914.9097"/><polygon fill="#181818" points="456.5261,1904.9097,460.5261,1914.9097,464.5261,1904.9097,460.5261,1908.9097" style="stroke:#181818;stroke-width:1;stroke-linejoin:miter;stroke-miterlimit:10;"/><line style="stroke:#181818;stroke-width:1;" x1="231.1858" x2="231.1858" y1="1962.8472" y2="1980.8472"/><line style="stroke:#181818;stroke-width:1;" x1="231.1858" x2="333.856" y1="1980.8472" y2="1980.8472"/><polygon fill="#181818" points="323.856,1976.8472,333.856,1980.8472,323.856,1984.8472,327.856,1980.8472" style="stroke:#181818;stroke-width:1;stroke-linejoin:miter;stroke-miterlimit:10;"/><line style="stroke:#181818;stroke-width:1;" x1="460.5261" x2="460.5261" y1="1962.8472" y2="1980.8472"/><line style="stroke:#181818;stroke-width:1;" x1="460.5261" x2="357.856" y1="1980.8472" y2="1980.8472"/><polygon fill="#181818" points="367.856,1976.8472,357.856,1980.8472,367.856,1984.8472,363.856,1980.8472" style="stroke:#181818;stroke-width:1;stroke-linejoin:miter;stroke-miterlimit:10;"/><line style="stroke:#181818;stroke-width:1;" x1="345.856" x2="345.856" y1="1860.9097" y2="1880.9097"/><polygon fill="#181818" points="341.856,1870.9097,345.856,1880.9097,349.856,1870.9097,345.856,1874.9097" style="stroke:#181818;stroke-width:1;stroke-linejoin:miter;stroke-miterlimit:10;"/><line style="stroke:#181818;stroke-width:1;" x1="345.856" x2="345.856" y1="1992.8472" y2="2012.8472"/><polygon fill="#181818" points="341.856,2002.8472,345.856,2012.8472,349.856,2002.8472,345.856,2006.8472" style="stroke:#181818;stroke-width:1;stroke-linejoin:miter;stroke-miterlimit:10;"/><?plantuml-src fLJRRjj647tdLmpKXrYerSGe0WToWuAHBLjmvIgcahQF8t55JfPS2dk9uR_lsQKkgUhs9NpGXNjsPiuvC_EAtd_NaxqYkfxbju_vdFBxvUppR9aNDAB9tStaVZHxe2AVB_8PtUQF-KCnIvXfl5I4TgNic0fblyfQ_MvBPIUTyRPh6cNF__5-FAwK_uEjPUEVPsRJvTvRMGMlpeQ8zPqCd1QpPSijyThBL_7F7tYjAzi5KqwwfhFqmytrz79wyHAow-jEg8kRo_pjv0NKjN3RcV9VOQVJwUNDkonpdgtFnWlLiAagDbIonozgLRlY9wQj0lDAix_AnlVinAQJe9bgRhZ5XKcjrdea1e2P4p9TY_Xt2_enXJe6m0kjcb0pa9biwEnXZuGPI8K2wCqxN39qyMPqyJELKed_TKY-LeREl9IiXndHUCdjLXeDt5OvV6uwsoByFl4LCCvtsqmrJj7PCmypPKhPd2HreUIQlB8bRw318K_48yc2DSkUmLwRI3Y6DvrNPAMgFVuGFU1rgZifuXECbhFh_1uSlBHRJZ1O4pojs0PwJX87w2A67AxLqCQB_Wb059iIxEe_yluG4FjOJ0nqjQVM7_OIu39JyVXvz1UU-Npq9vxipCC6nneEmOTWrX83Y1l2jedoh6d9faJPoaeacLcrLUoJtaeRmJqOBu3KKNcqZGyEfVj0JVAtZiAC9n3CWpLNfdEzA10NmdzXbwIB7YoKRG8Cq87M34Xr8dwItqM9li5SzGU5xtHqRTlvpbJdY5v97TjMQl4Gb4Ap0v_8rmlLiwAdMXeS5ZsB5TgofK4XlAKuBojf1YX9N2eewdc8atheav74CGAFXhpGgNa9nVfHyfmwriNLuf9KYOb3QXlgRuaYieut6j5nL18obTagyuLBeS6rxECD_hlPZzCgZTJuzbsfuFapMvGO3BhxDNryXF-Hqhm__lXuOaMYspiHnsMb3DjH-gIMKVG1dZJScJSNWmvSAvCsYUxCHZ2XiOFO16vw9rFLUvVwP7tbEzzYXKSofn8Kgi7io-0S-hU95CJzxTD3Ng2V2-N99rCQZ5N9JNXYYswi8ih9eUEdh7smc8TxxC10juVZupQ4V5ZyZ2PNJ-YRrvYYjOx1jqnDLyb-bzsXoJ7WGh-yVodrwNRf4-xgYQpsAms7WrqTb6iVGnjiMWH7ppjnF8JbfulXVwFDCKbxQdJ7At63mzQ87lmD?></g></svg>